<svg width="178" height="21" viewBox="0 0 178 21" fill="none" xmlns="http://www.w3.org/2000/svg">
<path d="M0 11.153L10.4179 20.6426V11.0576L0 1.56805V11.153Z" fill="white"/>
<path d="M10.4178 1.56805V11.153L20.8325 20.6426L31.0596 11.153V1.56805L20.8325 11.0576L10.4178 1.56805Z" fill="white"/>
<path d="M48.9769 16.1229L41.3693 1.6167H36.4894V20.634H40.0309V6.12782L47.6385 20.634H52.5184V1.6167H48.9769V16.1229Z" fill="white"/>
<path d="M60.9684 6.20599C56.7975 6.20599 53.8854 9.32786 53.8854 13.5242C53.8854 17.7206 56.5336 20.976 61.0733 20.976C64.9041 20.976 66.9769 18.6426 67.7367 16.5412H64.0108C63.2765 17.7747 62.1479 18.1689 61.0479 18.1689C59.3439 18.1689 57.6622 16.9894 57.481 14.5733H67.8957C68.0546 9.58854 65.3238 6.20599 60.9684 6.20599ZM57.5318 12.0809C57.8211 9.71888 59.5792 8.85418 60.943 8.85418C62.4658 8.85418 64.1443 9.69345 64.2206 12.0809H57.5318Z" fill="white"/>
<path d="M77.9162 6.52069L74.6099 16.9608L71.3037 6.52069H67.5015L72.6421 20.6326H76.4474L81.5085 6.52069H77.9162Z" fill="white"/>
<path d="M88.2513 6.20599C84.0803 6.20599 81.1683 9.32786 81.1683 13.5242C81.1683 17.7206 83.8165 20.976 88.3562 20.976C92.187 20.976 94.2597 18.6426 95.0195 16.5412H91.2937C90.5593 17.7747 89.4307 18.1689 88.3307 18.1689C86.6268 18.1689 84.945 16.9894 84.7638 14.5733H95.1785C95.3374 9.58854 92.6066 6.20599 88.2513 6.20599ZM84.8147 12.0809C85.104 9.71888 86.862 8.85418 88.2258 8.85418C89.7486 8.85418 91.4272 9.69345 91.5035 12.0809H84.8147Z" fill="white"/>
<path d="M100.294 8.98479V6.51782H96.7267V20.6329H100.348V13.2352C100.348 10.587 101.527 9.92898 103.311 9.92898C103.835 9.92898 104.28 9.95441 104.805 10.0085V6.5973C104.569 6.57187 104.255 6.54325 104.016 6.54325C102.389 6.54325 101.104 7.25219 100.29 8.98161L100.294 8.98479Z" fill="white"/>
<path d="M122.093 6.20599C119.969 6.20599 118.551 6.94036 117.448 8.51401C116.898 7.49035 115.849 6.20599 113.433 6.20599C111.729 6.20599 110.286 6.99441 109.497 8.38367V6.52073H105.876V20.6359H109.497V13.289C109.497 11.1368 109.891 9.11803 112.304 9.11803C114.428 9.11803 114.561 10.8761 114.561 12.4243V20.6359H118.182V13.289C118.182 11.1368 118.577 9.11803 120.99 9.11803C123.113 9.11803 123.247 10.8761 123.247 12.4243V20.6359H126.868V11.744C126.868 8.41228 125.634 6.20918 122.093 6.20918V6.20599Z" fill="white"/>
<path d="M132.746 6.52069H129.125V20.6358H132.746V6.52069Z" fill="white"/>
<path d="M142.925 6.20599C141.193 6.20599 139.648 6.9658 138.834 8.38367V6.52073H135.213V20.6359H138.834V13.289C138.834 11.0605 139.358 9.11803 141.746 9.11803C143.793 9.11803 144.184 10.6917 144.184 12.5292V20.6359H147.805V11.744C147.805 8.28194 146.311 6.20918 142.925 6.20918V6.20599Z" fill="white"/>
<path d="M156.227 6.20599C152.056 6.20599 149.144 9.32786 149.144 13.5242C149.144 17.7206 151.792 20.976 156.331 20.976C160.162 20.976 162.235 18.6426 162.995 16.5412H159.269C158.535 17.7747 157.406 18.1689 156.306 18.1689C154.602 18.1689 152.92 16.9894 152.739 14.5733H163.154C163.313 9.58854 160.582 6.20599 156.227 6.20599ZM152.79 12.0809C153.079 9.71888 154.837 8.85418 156.201 8.85418C157.724 8.85418 159.402 9.69345 159.479 12.0809H152.79Z" fill="white"/>
<path d="M174.379 1.6167V8.33092C173.619 7.01796 172.096 6.2073 170.313 6.2073C166.902 6.2073 164.174 9.14477 164.174 13.5796C164.174 18.0144 166.956 20.9773 170.313 20.9773C171.782 20.9773 173.489 20.3987 174.379 18.8537V20.6372H178V1.6167H174.379ZM171.203 18.1956C169.34 18.1956 167.976 16.3581 167.976 13.605C167.976 10.8519 169.34 8.98899 171.203 8.98899C173.196 8.98899 174.509 10.747 174.509 13.5796C174.509 16.4122 173.196 18.1956 171.203 18.1956Z" fill="white"/>
<path d="M130.933 0.4797L128.766 2.64673L130.933 4.81375L133.1 2.64672L130.933 0.4797Z" fill="white"/>
</svg>
